<svg width="32" height="32" viewBox="0 0 32 32" fill="none" xmlns="http://www.w3.org/2000/svg">
  <rect width="32" height="32" rx="6" fill="url(#gradient)"/>
  <path d="M16 6c-2.5 0-4.5 1.5-5.5 3.5-1 2-0.5 4.5 1.5 6l4 4 4-4c2-1.5 2.5-4 1.5-6C20.5 7.5 18.5 6 16 6z" fill="white"/>
  <path d="M13 12c0.5-1 1.5-2 3-2s2.5 1 3 2c0.5 1 0.25 2.5-0.75 3.25L16 17.5l-2.25-2.25C12.75 14.5 12.5 13 13 12z" fill="rgba(255,255,255,0.8)"/>
  <defs>
    <linearGradient id="gradient" x1="0%" y1="0%" x2="100%" y2="100%">
      <stop offset="0%" style="stop-color:#10b981;stop-opacity:1" />
      <stop offset="100%" style="stop-color:#059669;stop-opacity:1" />
    </linearGradient>
  </defs>
</svg>